<?xml version="1.0" encoding="UTF-8" standalone="no"?>
<svg width="149px" height="27px" viewBox="0 0 149 27" version="1.1" xmlns="http://www.w3.org/2000/svg" xmlns:xlink="http://www.w3.org/1999/xlink">
    <!-- Generator: Sketch 50.2 (55047) - http://www.bohemiancoding.com/sketch -->
    <title>stars</title>
    <desc>Created with Sketch.</desc>
    <defs></defs>
    <g id="HomePage" stroke="none" stroke-width="1" fill="none" fill-rule="evenodd">
        <g id="HOMEPAGE_v3-Copy-19" transform="translate(-725.000000, -4613.000000)">
            <g id="Group-2" transform="translate(0.000000, 4432.000000)">
                <g id="stars" transform="translate(725.000000, 180.000000)">
                    <g id="Icon/Star/Google-star">
                        <polygon id="Shape" fill="#E8711C" fill-rule="evenodd" opacity="0.9" points="14.5297286 1.66666667 18.6802102 12.1393939 29.0625 12.1393939 19.7208735 17.2012121 23.3510235 27.8484848 14.5297286 21.9168485 5.71147655 27.5895758 8.82433777 17.2448485 0 12.1364848 10.3792469 12.1364848"></polygon>
                        <rect id="Rectangle-12" x="0" y="0" width="30" height="30"></rect>
                    </g>
                    <g id="Icon/Star/Google-star" transform="translate(30.000000, 0.000000)">
                        <polygon id="Shape" fill="#E8711C" fill-rule="evenodd" opacity="0.9" points="14.5297286 1.66666667 18.6802102 12.1393939 29.0625 12.1393939 19.7208735 17.2012121 23.3510235 27.8484848 14.5297286 21.9168485 5.71147655 27.5895758 8.82433777 17.2448485 0 12.1364848 10.3792469 12.1364848"></polygon>
                        <rect id="Rectangle-12" x="0" y="0" width="30" height="30"></rect>
                    </g>
                    <g id="Icon/Star/Google-star" transform="translate(60.000000, 0.000000)">
                        <polygon id="Shape" fill="#E8711C" fill-rule="evenodd" opacity="0.9" points="14.5297286 1.66666667 18.6802102 12.1393939 29.0625 12.1393939 19.7208735 17.2012121 23.3510235 27.8484848 14.5297286 21.9168485 5.71147655 27.5895758 8.82433777 17.2448485 0 12.1364848 10.3792469 12.1364848"></polygon>
                        <rect id="Rectangle-12" x="0" y="0" width="30" height="30"></rect>
                    </g>
                    <g id="Icon/Star/Google-star" transform="translate(90.000000, 0.000000)">
                        <polygon id="Shape" fill="#E8711C" fill-rule="evenodd" opacity="0.9" points="14.5297286 1.66666667 18.6802102 12.1393939 29.0625 12.1393939 19.7208735 17.2012121 23.3510235 27.8484848 14.5297286 21.9168485 5.71147655 27.5895758 8.82433777 17.2448485 0 12.1364848 10.3792469 12.1364848"></polygon>
                        <rect id="Rectangle-12" x="0" y="0" width="30" height="30"></rect>
                    </g>
                    <g id="Icon/Star/Google-star" transform="translate(120.000000, 0.000000)">
                        <polygon id="Shape" fill="#E8711C" fill-rule="evenodd" opacity="0.9" points="14.5297286 1.66666667 18.6802102 12.1393939 29.0625 12.1393939 19.7208735 17.2012121 23.3510235 27.8484848 14.5297286 21.9168485 5.71147655 27.5895758 8.82433777 17.2448485 0 12.1364848 10.3792469 12.1364848"></polygon>
                        <rect id="Rectangle-12" x="0" y="0" width="30" height="30"></rect>
                    </g>
                </g>
            </g>
        </g>
    </g>
</svg>